<?xml version="1.0" ?><svg data-name="Your Icons" id="Your_Icons" viewBox="0 0 96 96" xmlns="http://www.w3.org/2000/svg"><defs><style>.cls-1{fill:none;stroke:#000;stroke-linecap:round;stroke-miterlimit:10;stroke-width:2px;}</style></defs><title/><path class="cls-1" d="M48,5.33,16.06,26l1.45,18.26A58.58,58.58,0,0,0,48,91.12,58.5,58.5,0,0,0,79.1,44.47l1.59-18Z"/><path d="M48.05,83l-.54-.36a51.18,51.18,0,0,1-23-39L23.37,29.61,48,13.67,73.34,30.08,72.13,43.85A51.1,51.1,0,0,1,48.6,82.69ZM25.46,30.64l1,12.9A49.21,49.21,0,0,0,48.07,80.65a49.09,49.09,0,0,0,22.06-37l1.12-12.56L48,16.05Z"/><path d="M46,58.1l-13.28-11,3.91-4.72,8.56,7.08,16-19.34L65.91,34ZM35.53,46.85l10.2,8.43,17.36-21L61.45,33l-16,19.34-8.56-7.08Z"/></svg>